<svg id="Layer_1" data-name="Layer 1" xmlns="http://www.w3.org/2000/svg" viewBox="0 0 898.88 162.88"><defs><style>.cls-1{fill:#fff}</style></defs><title>united_4p_h_w_r</title><g id="Logo"><path class="cls-1" d="M978.12 243.06a5.68 5.68 0 1 1 5.69-5.69 5.73 5.73 0 0 1-5.69 5.69m0-12.41a6.72 6.72 0 1 0 6.73 6.72 6.68 6.68 0 0 0-6.73-6.72" transform="translate(-85.96 -81.3)"/><path class="cls-1" d="M977.88 236.58h-1.25v-1.89h2c.8 0 1.79.13 1.79.88 0 1.17-1.61 1-2.5 1m3.53-1c0-1.58-1.28-1.94-2.62-1.94h-3.23V241h1v-3.4h1.25l2.19 3.39h1.24l-2.21-3.39c1.31 0 2.31-.56 2.31-2M935 244.18a111.63 111.63 0 0 0 3.47-11.23 103.9 103.9 0 0 0 1.9-38.4 113.46 113.46 0 0 1-1.65 12.72c.28.9.77 2.36 1 3.27a120.77 120.77 0 0 1-3.9 20.33c-.89-3.28-2.09-6.44-2.16-6.65a175.51 175.51 0 0 1-9.24 20z" transform="translate(-85.96 -81.3)"/><path class="cls-1" d="M912.8 244.18h6.12c17.42-25.74 18.3-48.54 18.3-52.91a61.77 61.77 0 0 0-3.7-21.85 100.75 100.75 0 0 0-9.24-17.64 79.24 79.24 0 0 1 2.45 9c0 .22.08.42.11.61 1.11 1.85 6.11 10.67 6.78 20.37s-3.53-4.95-6.16-8.08a81.82 81.82 0 0 1-1.9 15.82 96.92 96.92 0 0 1 7.58 10 94.2 94.2 0 0 1-5 16.7 111.21 111.21 0 0 0-7.91-10 130.41 130.41 0 0 1-9.54 18.85s6.64 7.76 8.09 10c-1.97 3.27-3.87 6.13-5.98 9.13z" transform="translate(-85.96 -81.3)"/><path class="cls-1" d="M891 244.18c11.56-12.93 21.41-28.14 27.33-44.43 5.13-14.13 7.93-31.39 3.38-46.74-.3-1-.65-2-1-3.06a36.85 36.85 0 0 0-5.39-9.6A103 103 0 0 0 896.63 124a37.8 37.8 0 0 1 2.73 4s8.35 6.2 13.2 12.49a82.86 82.86 0 0 0-10.2-6.45h-.05a51.51 51.51 0 0 1 3.08 10.66 82.89 82.89 0 0 1 14 9.61 57.55 57.55 0 0 1 1.24 13 110.24 110.24 0 0 0-14.45-10.5 79.41 79.41 0 0 1-1.93 15 117.94 117.94 0 0 1 14.45 11.13 97.78 97.78 0 0 1-5.35 16.45 178.34 178.34 0 0 0-14-11.72 119.22 119.22 0 0 1-8.9 17.75c6.85 6 13.29 12.14 13.29 12.14a145.26 145.26 0 0 1-13.19 17.45l-12.26-12.21A162.54 162.54 0 0 1 862 240l3.76 4.17z" transform="translate(-85.96 -81.3)"/><path class="cls-1" d="M894.14 125.34a23.79 23.79 0 0 0-2.72-3.17 30.73 30.73 0 0 0-2.71-2.34c-10.2-7.69-29-11.53-29-11.53 1.79 1 3.28 1.93 3.29 1.94a83.62 83.62 0 0 1 14.37 5.2s-6.11-1.39-10-1.93a36.41 36.41 0 0 1 4.51 4.77s12.45 2.27 17.92 5.27a28.15 28.15 0 0 1 4.76 7.42 109.22 109.22 0 0 0-18.2-5.27 39.05 39.05 0 0 1 2.76 9.16 113.38 113.38 0 0 1 18.61 6.44 54.15 54.15 0 0 1 .8 11.68 146 146 0 0 0-18.79-7.7 63.07 63.07 0 0 1-2 12.65s12.88 5.75 18.66 9.24a90.52 90.52 0 0 1-5.23 14.94c-8.81-5.73-18.14-10.82-18.14-10.82-2.34 5.63-8.11 14.84-8.11 14.84.14.1 9.74 6.69 17.1 12.53a141.55 141.55 0 0 1-12.26 15.92c-1.55-1.48-15.69-14-15.69-14a151.85 151.85 0 0 1-14.22 14.38l13.63 15.43a190.1 190.1 0 0 1-17.66 12.8L824.51 227A132.07 132.07 0 0 1 803 239.5v4.68h44.37c49.52-37.47 67.09-91.05 46.77-118.84z" transform="translate(-85.96 -81.3)"/><path class="cls-1" d="M869 119.71c-12.3-16.55-31.55-14.19-37.29-13.39a88.17 88.17 0 0 0-11.07 2.26c1.41.13 3.33.38 4.71.66 1-.24 9.87-2.26 16.31-1.42a78.26 78.26 0 0 0-11.85 2.67 21.36 21.36 0 0 1 4.48 2 84.13 84.13 0 0 1 17.81-2.67 42.88 42.88 0 0 1 6.06 3.41 95.58 95.58 0 0 0-20 2.09 23.17 23.17 0 0 1 3.65 4.09 110.45 110.45 0 0 1 22-1s1.39 1.69 2 2.6a33.68 33.68 0 0 1 2.22 3.82 131.93 131.93 0 0 0-23.63-.4 27.94 27.94 0 0 1 1.63 6.57 144.3 144.3 0 0 1 24.59 2.35 40.77 40.77 0 0 1 .13 9.56 174.87 174.87 0 0 0-24.58-4.4 49.51 49.51 0 0 1-1.64 9.07c1.31.31 15.72 3.74 23.8 7q-.23.76-.49 1.53a83.06 83.06 0 0 1-4.31 10.42c-6.5-3.2-22.45-9.43-22.45-9.43a85.65 85.65 0 0 1-5.82 10.78s13.67 7.8 20.25 12.12a123.76 123.76 0 0 1-10.26 12.73c-4.77-4.28-16.72-13.54-17.62-14.23-3.85 4.59-8.7 9.41-10.16 10.84l14.33 16.43-.41.36c-3.1 2.57-6.44 5-9.27 6.93-2.45 1.67-4.47 3-5.17 3.4-.17-.25-9.55-15.24-11-17.62-1 .76-2.07 1.49-3.11 2.21v30.8c1.69-.81 3.38-1.65 5.06-2.55a128.11 128.11 0 0 0 23.22-14.86 146.62 146.62 0 0 0 14.43-13.1A128.07 128.07 0 0 0 860.63 183c15.81-23.28 20.04-47.61 8.37-63.29z" transform="translate(-85.96 -81.3)"/><path class="cls-1" d="M837.12 118.47c-5.86-6.72-15.61-9-26.93-7.41l-.92.14c-.86.15-1.74.32-2.62.52a27.38 27.38 0 0 0-3.65 1.08v3.39a51.72 51.72 0 0 1 3.43-2.5 45.49 45.49 0 0 1 6.56-.93 84.51 84.51 0 0 0-10 6.74v2.61l.1.06s8.3-6.57 14.9-9.4a30.16 30.16 0 0 1 4.56.67 99.33 99.33 0 0 0-17.64 9.73 18.54 18.54 0 0 1 2.06 1.45 110.52 110.52 0 0 1 20.2-9.64 20.8 20.8 0 0 1 4 2.38 134.62 134.62 0 0 0-22.46 9 14.65 14.65 0 0 1 1.64 2.34l.2-.08a144.38 144.38 0 0 1 24.18-7.62 18.55 18.55 0 0 1 2.39 4.47 148.06 148.06 0 0 0-25.55 5.89 20.42 20.42 0 0 1 .81 3.49 158.71 158.71 0 0 1 26.05-3.37 31.84 31.84 0 0 1-.18 6.57c-7.4-.39-25 .55-25.73.6a23.41 23.41 0 0 1-.72 4.93 188.66 188.66 0 0 1 24.6 2.6 57 57 0 0 1-3.44 8.28c-7.81-2.35-19.66-5.2-22.78-5.91a38.22 38.22 0 0 1-3.08 6s14.48 6.32 20 9.41a86 86 0 0 1-7.19 8.67q-2.08-1.56-3.94-2.91l-13-9.09v12l7.51 8.77a90.19 90.19 0 0 1-7.51 5.44v7.15l.28-.18a108.45 108.45 0 0 0 10.12-7.81c25.94-22.63 36.56-52.83 23.75-67.53z" transform="translate(-85.96 -81.3)"/><path class="cls-1" d="M803 152.79c6.62-9.43 7.58-20.24 1.76-25.52A10.58 10.58 0 0 0 803 126zm36.15-50.67c58.73 0 106.51 48 106.51 106.92a107.44 107.44 0 0 1-5.93 35.14h26.14V81.3H803v27.17h.13a105.57 105.57 0 0 1 36.02-6.35zm-118.99 70.79a14 14 0 0 1-4.39 6.61 18.55 18.55 0 0 1-7.86 3.58 53.84 53.84 0 0 1-11.65 1.08h-19.19v-42.93h19.19a50.4 50.4 0 0 1 11.87 1.19 18.39 18.39 0 0 1 7.8 3.79 14.52 14.52 0 0 1 4.28 6.67 32.45 32.45 0 0 1 1.3 9.81 33.06 33.06 0 0 1-1.35 10.19m14.69-39.68a41.22 41.22 0 0 0-15.23-8.22q-9.27-2.93-22.28-2.93h-43.9v81.3h43.9q23.41 0 36.26-10.14t12.85-30.51a47.15 47.15 0 0 0-2.82-16.64 32 32 0 0 0-8.78-12.85" transform="translate(-85.96 -81.3)"/><path class="cls-1" d="M474.14 88.68h44.45V72.75h-44.45V59.3h52.79l-.43-18.53h-75.99v81.3h78.16l.43-18.32h-54.96V88.68zM330.51 40.77l-.64 19.18h31.11v62.12h23.73V59.95h31.11l-.54-19.18h-84.77zm-60.7 0h24.06v81.3h-24.06zM203.03 81.2l.22 8.67-.22.22-6.18-6.29-44-43.03h-19.52v81.3h21.47V79.36l-.22-8.78.32-.11 6.18 6.18L209 122.07h15.5v-81.3h-21.47V81.2z"/><path class="cls-1" d="M153.93 167.92q0 9.21-5.2 13.71t-16.73 4.5q-11.6 0-17-4.5t-5.42-13.71v-45.85H86v45.63q0 18.86 11.87 28.13T132 205.1q22.44 0 33.93-9.21t11.49-28.18v-45.64h-23.49z" transform="translate(-85.96 -81.3)"/></g></svg>